<?xml version="1.0" standalone="no"?>
<!DOCTYPE svg PUBLIC "-//W3C//DTD SVG 1.1//EN" "http://www.w3.org/Graphics/SVG/1.1/DTD/svg11.dtd" >
<!--
2013-9-30: Created.
-->
<svg>
<metadata>
Created by iconfont
</metadata>
<defs>

<font id="iconfont" horiz-adv-x="1024" >
  <font-face
    font-family="iconfont"
    font-weight="500"
    font-stretch="normal"
    units-per-em="1024"
    ascent="896"
    descent="-128"
  />
    <missing-glyph />
    
    <glyph glyph-name="drop-down" unicode="&#58960;" d="M840.192 276.053l-317.696-317.611-314.368 314.283-30.208-30.123 344.917-344.832 30.123 30.123-0.256 0.341 317.611 317.611zM552.96 262.229l-0.341 0.341 317.696 317.696-30.123 30.123-317.696-317.611-314.368 314.368-30.208-30.208 344.917-344.832z"  horiz-adv-x="1024" />

    
    <glyph glyph-name="explorer" unicode="&#58901;" d="M740.439 683.428c189.905 89.029 258.911-6.061 238.044-103.004-2.875-13.353-13.313-48.874-22.554-79.524-50.134 81.719-125.611 146.197-215.491 182.527zM379.683 339.415c12.727 98.547 96.896 174.698 198.906 174.698 102.009 0 186.178-76.152 198.906-174.698h-397.813zM214.18-168.3c-76.029-8.009-174.221 74.834-62.304 270.851 36.108-92.86 102.131-170.769 186.233-221.913-23.266-13.068-82.951-44.628-123.928-48.938zM1022.155 265.714c0 74.932-18.315 145.576-50.689 207.735 9.112 23.294 19.898 55.111 31.583 97.99 37.778 138.552-49.118 221.074-182.446 207.623-80.972-8.168-157.206-30.279-230.911-63.339-5.948 0.232-11.919 0.385-17.929 0.385-221.748 0-406.060-160.255-443.458-371.266 92.65 133.833 227.813 204.758 227.813 204.758-92.271-96.668-171.869-191.791-230.979-292.060-1.129-1.793-2.243-3.613-3.323-5.474-49.335-84.932-83.855-173.655-98.713-270.237-20.375-132.442 46.18-203.195 188.348-182.888 48.859 6.982 137.366 49.65 162.438 62.099 59.73-29.265 126.874-45.72 197.874-45.72 196.1 0 362.898 125.337 424.73 300.263h-243.77c-34.589-60.338-99.599-100.999-174.131-100.999-107.602 0-195.4 84.709-200.39 191.074h639.964c2.618 19.651 3.99 39.688 3.99 60.052z"  horiz-adv-x="1043" />

    
    <glyph glyph-name="search" unicode="&#58884;" d="M755.2 114.4c51.2 64 83.2 153.6 83.2 243.2 0 211.2-172.8 390.4-390.4 390.4S70.4 575.2 70.4 357.6c0-211.2 172.8-390.4 390.4-390.4 83.2 0 160 25.6 224 70.4 51.2-51.2 160-153.6 198.4-192l70.4 70.4C915.2-39.2 812.8 63.2 755.2 114.4zM454.4 82.4c-153.6 0-281.6 128-281.6 281.6 0 153.6 128 281.6 281.6 281.6s281.6-128 281.6-281.6C736 204 608 82.4 454.4 82.4z"  horiz-adv-x="1024" />

    
    <glyph glyph-name="fanshuijiesuan" unicode="&#58964;" d="M920.37608985 50.61190461000001l-142.35940248 142.35940247 0-101.04614561L182.24761245 91.92516147000003 182.24761245 758.87393764l-95.27807757 0 0-666.94877617c0-52.64059913 42.63747845-95.27919414 95.27807757-95.27919411L778.01668737-3.354032640000014l0-88.39346525L920.37608985 50.61190461000001zM524.56112375 195.57732155999997L619.84031788 195.57732155999997 619.84031788 322.4949159 810.39647303 322.4949159 810.39647303 417.77411004 619.84031788 417.77411004 619.84031788 513.05107106 810.39647303 513.05107106 810.39647303 608.3302652 664.39490295 608.3302652 792.18116879 769.2142547 717.86397797 828.24148742 569.73092476 641.74285437 421.66039801 828.25265287 347.33092522 769.24216832 475.07922854 608.3302652 334.00385205 608.3302652 334.00385205 513.05107106 524.56112375 513.05107106 524.56112375 417.77411004 334.00385205 417.77411004 334.00385205 322.4949159 524.56112375 322.4949159Z"  horiz-adv-x="1024" />

    
    <glyph glyph-name="20" unicode="&#58898;" d="M428.8 185.6c-6.4 0-19.2 6.4-25.6 6.4L236.8 358.4c-12.8 12.8-12.8 32 0 44.8s32 12.8 44.8 0l147.2-147.2L742.4 576c12.8 12.8 32 12.8 44.8 0s12.8-32 0-44.8L448 192C448 185.6 435.2 185.6 428.8 185.6zM915.2-128l-262.4 0c-19.2 0-32 12.8-32 32S633.6-64 646.4-64l262.4 0c25.6 0 44.8 19.2 44.8 44.8l0 262.4c0 19.2 12.8 32 32 32S1024 262.4 1024 249.6l0-262.4C1024-76.8 972.8-128 915.2-128zM992 486.4c-19.2 0-32 12.8-32 32L960 787.2C960 812.8 940.8 832 915.2 832l-262.4 0C633.6 832 614.4 844.8 614.4 864S633.6 896 646.4 896l262.4 0C972.8 896 1024 844.8 1024 787.2l0-262.4C1024 505.6 1011.2 486.4 992 486.4zM32 486.4C12.8 486.4 0 505.6 0 518.4L0 787.2C0 844.8 51.2 896 108.8 896l262.4 0c19.2 0 32-12.8 32-32S390.4 832 377.6 832L108.8 832C83.2 832 64 812.8 64 787.2l0-262.4C64 505.6 51.2 486.4 32 486.4zM377.6-128 108.8-128C51.2-128 0-76.8 0-19.2l0 262.4c0 19.2 12.8 32 32 32S64 262.4 64 249.6l0-262.4C64-44.8 83.2-64 108.8-64l262.4 0c19.2 0 32-12.8 32-32S390.4-128 377.6-128z"  horiz-adv-x="1024" />

    
    <glyph glyph-name="xianlu" unicode="&#59142;" d="M512-66c-248.528 0-450 201.472-450 450s201.472 450 450 450c248.528 0 450-201.472 450-450 0-248.528-201.472-450-450-450zM512 800.671c-230.114 0-416.671-186.558-416.671-416.671 0-230.114 186.558-416.671 416.671-416.671 230.114 0 416.671 186.558 416.671 416.671 0 230.114-186.558 416.671-416.671 416.671zM602.172 442.357v0.157h-406.843v48.614h406.843v73.614l215.386-122.386h-215.386zM793.485 283.24300000000005h-598.157v49.086h598.157v-49.086z"  horiz-adv-x="1024" />

    
    <glyph glyph-name="back" unicode="&#59361;" d="M772.592798 770.142026 688.687481 854.047344 214.047342 379.407202 679.501889-86.047344 763.407202-2.142026 381.857974 379.407202 772.592798 770.142026Z"  horiz-adv-x="1024" />

    
    <glyph glyph-name="money" unicode="&#58904;" d="M396.8 491.52c5.12-5.12 12.8-7.68 17.92-7.68s12.8 2.56 17.92 7.68c10.24 10.24 10.24 25.6 0 35.84l-107.52 107.52c-10.24 10.24-25.6 10.24-35.84 0-10.24-10.24-10.24-25.6 0-35.84L396.8 491.52zM627.2 491.52l107.52 107.52c10.24 10.24 10.24 25.6 0 35.84-10.24 10.24-25.6 10.24-35.84 0L588.8 527.36c-10.24-10.24-10.24-25.6 0-35.84 5.12-5.12 12.8-7.68 17.92-7.68S622.08 486.4 627.2 491.52zM724.48 417.28c15.36 0 25.6 12.8 25.6 25.6s-12.8 25.6-25.6 25.6L309.76 468.48c-15.36 0-25.6-12.8-25.6-25.6s12.8-25.6 25.6-25.6l176.64 0 0-99.84-184.32 0c-15.36 0-25.6-12.8-25.6-25.6 0-15.36 12.8-25.6 25.6-25.6l184.32 0 0-156.16c0-15.36 12.8-25.6 25.6-25.6s25.6 12.8 25.6 25.6l0 156.16 179.2 0c15.36 0 25.6 12.8 25.6 25.6 0 15.36-12.8 25.6-25.6 25.6l-179.2 0 0 99.84L724.48 417.28zM69.12 404.48c15.36 0 25.6 12.8 25.6 25.6l0 0C117.76 640 296.96 803.84 512 803.84c207.36 0 378.88-151.04 412.16-345.6 0 0 2.56-15.36 12.8-23.04 5.12-2.56 7.68-2.56 12.8-2.56 10.24 0 17.92 5.12 23.04 12.8 2.56 5.12 61.44 110.08 46.08 215.04-2.56 15.36-15.36 23.04-28.16 23.04-15.36-2.56-23.04-15.36-23.04-28.16 5.12-38.4-2.56-79.36-12.8-112.64C893.44 724.48 719.36 857.6 512 857.6c-245.76 0-445.44-186.88-468.48-424.96C43.52 417.28 53.76 404.48 69.12 404.48zM954.88 363.52c-15.36 0-25.6-12.8-25.6-25.6l0 0C906.24 128 727.04-35.84 512-35.84c-207.36 0-378.88 151.04-412.16 345.6 0 0-2.56 15.36-12.8 23.04-5.12 2.56-7.68 2.56-12.8 2.56-10.24 0-17.92-5.12-23.04-12.8-2.56-5.12-61.44-110.08-46.08-215.04 2.56-15.36 15.36-23.04 28.16-23.04 15.36 2.56 23.04 15.36 23.04 28.16-5.12 38.4 2.56 79.36 12.8 112.64 64-184.32 238.08-317.44 445.44-317.44 245.76 0 445.44 186.88 468.48 424.96C980.48 350.72 970.24 363.52 954.88 363.52z"  horiz-adv-x="1024" />

    
    <glyph glyph-name="tousu" unicode="&#58880;" d="M988.277 784.888v0c-27.985 27.982-73.69 27.982-101.67 0l-316.674-316.674 101.665-101.667 316.679 316.674c27.98 27.982 27.98 73.684 0 101.667zM538.435 352.766c-1.97-10.405 7.172-19.545 17.717-17.72l103.075 18.985-101.67 101.665-19.122-102.93zM895.107-37.888c0-18.605-15.19-33.79-33.79-33.79h-696.288c-18.602 0-33.79 15.185-33.79 33.79v843.738c0 18.6 15.187 33.79 33.79 33.79h696.288c11.78 0 22.020-5.972 27.99-15.017l36.52 36.35c-15.53 18.26-38.57 29.865-64.51 29.865h-696.288c-46.76 0-84.817-38.057-84.817-84.987v-843.908c0-46.76 38.057-84.99 84.987-84.99h696.288c46.76 0 84.99 38.055 84.99 84.99v640.993l-51.2-51.197v-589.626h-0.17zM780.767 208.882h-535.016c-11.262 0-20.48-9.215-20.48-20.48v-12.8c0-11.26 9.217-20.475 20.48-20.475h535.016c11.26 0 20.48 9.215 20.48 20.475v12.8c0 11.265-9.22 20.48-20.48 20.48zM678.372 612.833h-432.621c-11.262 0-20.48-9.215-20.48-20.477v-12.8c0-11.265 9.217-20.48 20.48-20.48h378.867l53.754 53.757zM677.007 336.706l-139.43-25.77c-14.165-2.555-26.452 9.73-23.892 23.895l1.537 8.7h-269.471c-11.262 0-20.48-9.21-20.48-20.48v-12.795c0-11.265 9.217-20.48 20.48-20.48h535.016c11.26 0 20.48 9.215 20.48 20.48v12.795c0 11.27-9.22 20.48-20.48 20.48h-110.59l6.83-6.825zM245.751 424.426h247.967l53.757 53.757h-301.724c-11.262 0-20.48-9.215-20.48-20.48v-12.797c0-11.265 9.218-20.48 20.48-20.48zM801.247 444.906v11.945l-32.425-32.425h11.945c11.26 0 20.48 9.215 20.48 20.48z"  horiz-adv-x="1038" />

    
    <glyph glyph-name="diannao" unicode="&#58881;" d="M916.095 831.532h-806.58c-38.815 0-70.393-31.578-70.393-70.394v-582.53c0-38.815 31.578-70.392 70.393-70.392h332.897V-19.86H333.565c-14.129 0-25.583-11.454-25.583-25.583s11.454-25.582 25.583-25.582h358.48c14.13 0 25.583 11.454 25.583 25.582s-11.453 25.583-25.582 25.583H583.199V108.216h332.896c38.815 0 70.393 31.577 70.393 70.392V761.14c0 38.815-31.578 70.393-70.393 70.393z m-806.58-51.166h806.58c10.602 0 19.227-8.625 19.227-19.228V293.81H90.287V761.14c0 10.601 8.627 19.226 19.228 19.226z m422.518-800.225h-38.456V108.216h38.456V-19.86z m384.062 179.24h-806.58c-10.601 0-19.228 8.626-19.228 19.227v64.038h845.035v-64.038c0-10.601-8.624-19.227-19.227-19.227z"  horiz-adv-x="1024" />

    
    <glyph glyph-name="moneyall" unicode="&#58895;" d="M939.091058-127.317333H503.891058c-16.497778 1.365333-295.253333 22.755556-446.577778 351.687111a315.107556 315.107556 0 0 0-27.875556 93.696 112.412444 112.412444 0 0 0 34.133334 106.951111c47.786667 33.28 125.724444 11.662222 185.457778-51.598222l34.702222-36.579556c80.213333-85.959111 160.426667-159.630222 243.484444-171.235555a325.063111 325.063111 0 0 1 124.017778-34.929778 443.107556 443.107556 0 0 0-43.804444 122.709333 97.336889 97.336889 0 0 0 54.613333 72.647111 126.179556 126.179556 0 0 0 121.173333-30.947555c65.991111-48.753778 94.435556-100.636444 154.737778-120.718223A88.348444 88.348444 0 0 0 997.117724 90.339556v-158.606223a58.709333 58.709333 0 0 0-58.026666-59.050666z m0 59.050666v158.606223a29.468444 29.468444 0 0 1-19.342222 27.932444c-77.368889 25.998222-100.693333 77.312-170.666667 128.967111a82.261333 82.261333 0 0 1-65.991111 23.893333c-33.564444-13.653333-18.204444-36.465778 4.551111-80.896a365.738667 365.738667 0 0 0 15.928889-142.222222l-176.355556 58.709334c-102.968889 14.392889-197.973333 95.857778-285.582222 189.155555l-34.133333 36.295111a139.776 139.776 0 0 1-91.022223 49.493334 34.816 34.816 0 0 1-19.911111-5.347556c-14.791111-10.467556-21.048889-47.160889 10.808889-116.167111a545.507556 545.507556 0 0 1 399.36-328.704h432.355556zM514.131058 327.111111h-2.275556a25.372444 25.372444 0 0 0-27.306666 21.845333v34.645334H396.939947a28.444444 28.444444 0 0 0 0 56.888889h87.608889V498.119111H398.077724a28.444444 28.444444 0 0 0 0 56.888889h86.471112V559.217778c-1.137778 0.739556-2.844444 0.682667-4.551112 1.649778a14.051556 14.051556 0 0 1-2.275555 0.796444 1.365333 1.365333 0 0 1-0.568889 1.308444c-0.568889 0.739556-1.706667 1.024-2.275556 1.820445L377.028836 684.714667a23.608889 23.608889 0 0 0 6.257777 35.214222 31.744 31.744 0 0 0 40.391111-5.688889l77.937778-95.800889 103.537778 91.022222a31.288889 31.288889 0 0 0 40.391111 0 22.755556 22.755556 0 0 0 0-35.726222L541.437724 581.973333V554.666667h88.746667a28.444444 28.444444 0 0 0 0-56.888889H541.437724v-57.628445h88.177778a28.444444 28.444444 0 0 0 0-56.888889H541.437724v-34.645333a25.372444 25.372444 0 0 0-27.306666-21.504z m350.435555 0A377.514667 377.514667 0 0 1 883.339947 440.888889 397.368889 397.368889 0 0 1 92.584391 497.777778H33.988836A455.111111 455.111111 0 0 0 940.228836 440.888889a468.138667 468.138667 0 0 0-14.791112-113.777778h-60.871111z"  horiz-adv-x="1024" />

    
    <glyph glyph-name="coin" unicode="&#59097;" d="M989.01333333 278.82666667c0 76.48-104 136.42666667-231.57333333 136.42666666-8.53333333 0-18.66666667-0.32-26.88-0.85333333V637.5466666699999c1.17333333 5.65333333 0.74666667 11.41333333 0.74666667 17.28 0 75.41333333-96.74666667 134.4-224.21333334 134.4-127.46666667 0-227.30666667-59.09333333-227.30666666-134.4 0-5.86666667 0.85333333-11.62666667 2.02666666-17.28v-61.22666667c-7.14666667 0.42666667-14.50666667 0.64-21.86666666 0.64-127.46666667 0-225.49333333-58.98666667-225.49333334-134.4 0-5.86666667-1.06666667-11.62666667 0.10666667-17.28v-312.53333333h1.6c3.94666667-71.25333333 100.69333333-126.50666667 223.78666667-126.50666667 122.98666667 0 225.92 55.14666667 229.97333333 126.50666667h1.49333333v13.01333333c7.25333333-0.42666667 8.21333333-1.06666667 15.68-1.06666667 8.53333333 0 16.85333333 0.32 25.06666667 0.85333334v-3.62666667h1.70666667l-0.53333334-8.53333333c0-73.49333333 99.94666667-137.49333333 227.52-137.49333334 127.57333333 0 227.52 58.45333333 227.52 133.12l-0.21333333 8.42666667h1.38666667V261.33333332999996c1.17333333 5.76-0.53333333 11.52-0.53333334 17.49333334m-228.26666666 93.01333333c112.10666667 0 190.29333333-49.06666667 190.29333333-93.01333333s-78.18666667-93.01333333-190.29333333-93.01333334c-112.10666667 0-190.29333333 49.06666667-190.29333334 93.01333334 0 44.05333333 78.18666667 93.01333333 190.29333334 93.01333333m192.32-169.28v-23.57333333c-10.77333333-47.14666667-96-86.50666667-192.32-86.50666667-96.32 0-181.54666667 39.36-192.32 86.4v23.57333333c40.96-36.48 111.14666667-60.16 192.32-60.16 81.28 0.10666667 151.36 23.78666667 192.32 60.26666667M507.09333333 392.32c-7.36 0-8.42666667 0.32-15.68 0.74666667v32.21333333c0.74666667 3.52 1.28 7.04 1.6 10.56 6.72-0.42666667 7.25333333-0.64 14.08-0.64 80.74666667 0 146.98666667 23.89333333 186.45333334 60.37333333v-18.13333333c-10.66666667-46.29333333-91.52-85.12-186.45333334-85.12m189.54666667 18.02666667c-3.30666667-0.53333333-6.61333333-0.96-9.81333333-1.6 3.30666667 2.66666667 6.82666667 5.22666667 9.81333333 8v-6.4M507.09333333 746.45333333c110.50666667 0 184.42666667-48.32 184.42666667-91.62666666 0-43.30666667-73.92-91.62666667-184.42666667-91.62666667-110.50666667 0-187.52 48.32-187.52 91.62666667 0 43.30666667 77.01333333 91.62666667 187.52 91.62666666M317.54666667 579.73333333c3.41333333-3.09333333 7.36-5.86666667 11.2-8.74666666-3.62666667 0.64-7.46666667 1.17333333-11.2 1.70666666v7.04m-57.70666667-45.44c110.50666667 0 190.61333333-48.32 190.61333333-91.62666666 0-43.41333333-80.10666667-91.62666667-190.61333333-91.62666667-110.50666667-0.10666667-187.52 48.21333333-187.52 91.52 0 43.41333333 77.01333333 91.73333333 187.52 91.73333333M70.29333333 367.46666667c40.42666667-35.94666667 109.54666667-59.2 189.54666667-59.2 80 0 152.21333333 23.25333333 192.64 59.2v-23.14666667c-10.56-46.4-97.70666667-85.22666667-192.64-85.22666667s-178.88 38.82666667-189.54666667 85.22666667v23.14666667m0-84.05333334c39.36-36.48 108.69333333-60.37333333 189.54666667-60.37333333 80.74666667 0 153.28 23.78666667 192.64 60.37333333v-18.13333333c-10.56-46.4-97.70666667-85.22666667-192.64-85.22666667s-178.88 38.82666667-189.54666667 85.12v18.24m0-78.93333333c39.36-36.48 108.69333333-60.37333333 189.54666667-60.37333333 80.74666667 0 153.28 23.78666667 192.64 60.37333333v-18.13333333c-10.56-46.4-97.70666667-85.22666667-192.64-85.22666667s-178.88 38.72-189.54666667 85.22666667v18.13333333m189.54666667-182.18666667c-98.56 0-185.06666667 41.81333333-190.18666667 90.56h0.64v12.8c39.36-36.48 108.69333333-60.26666667 189.54666667-60.26666666 80.74666667 0 153.28 23.89333333 192.64 60.37333333v-12.8h0.64c-5.12-48.85333333-94.82666667-90.66666667-193.28-90.66666667m228.05333333 449.92c-7.46666667 20.37333333-28.8 38.93333333-49.70666666 54.50666667 21.76-3.94666667 44.69333333-6.29333333 68.90666666-6.29333333 80 0 146.02666667 23.25333333 186.45333334 59.2v-23.14666667c-10.56-46.4-91.52-85.22666667-186.45333334-85.22666667-8.64 0-10.88 0.42666667-19.2 0.96m44.16-310.50666666c-8.21333333-0.64-16.53333333-1.06666667-25.06666666-1.06666667-7.36 0-8.42666667 0.32-15.68 0.74666667v37.86666666c7.14666667-0.42666667 8.21333333-0.74666667 15.68-0.74666666 8.53333333 0 16.85333333 0.42666667 25.06666666 1.06666666v-37.86666666m0 73.81333333c-8.21333333-0.64-16.53333333-1.06666667-25.06666666-1.06666667-7.36 0-8.42666667 0.32-15.68 0.74666667v42.98666667c7.14666667-0.42666667 8.21333333-0.74666667 15.68-0.74666667 7.89333333 0 15.57333333 0.42666667 23.25333333 0.85333333 0.21333333-5.01333333 0.85333333-9.92 1.81333333-14.72v-28.05333333m5.44 79.25333333c-9.92-0.85333333-20.05333333-1.38666667-30.4-1.38666666-7.36 0-8.42666667 0.32-15.68 0.74666666v42.98666667c7.14666667-0.42666667 8.21333333-0.74666667 15.68-0.74666667 24.42666667 0 47.57333333 2.45333333 69.33333334 6.4-18.02666667-13.97333333-31.36-30.18666667-38.93333334-48m223.25333334-302.29333333c-102.50666667 0-192.53333333 44.58666667-193.49333334 95.57333333l0.32 9.49333334h0.53333334c39.89333333-37.22666667 110.4-61.54666667 192.64-61.54666667 82.13333333 0 152.64 24.32 192.64 61.54666667h0.64l0.32-8.64c0-51.41333333-90.45333333-96.42666667-193.6-96.42666667m-518.93333334 402.13333333c-1.70666667 2.02666667-2.98666667 5.97333333-3.94666666 11.84h-26.98666667c-0.21333333-12.90666667 5.44-21.97333333 16.85333333-27.30666666 6.50666667-2.98666667 16.32-5.01333333 29.44-5.97333334v-13.86666666h9.70666667v13.97333333c10.34666667 0.53333333 19.30666667 2.45333333 26.77333333 5.76 12.37333333 5.33333333 18.56 13.76 18.56 25.49333333 0 8.85333333-4.48 15.78666667-13.44 20.58666667-5.44 2.88-16.10666667 6.29333333-31.89333333 10.13333333v26.56c6.61333333-0.32 11.09333333-2.13333333 13.65333333-5.44 1.49333333-1.92 2.45333333-4.90666667 2.98666667-9.06666666h26.34666667c-0.42666667 11.09333333-6.18666667 19.2-17.38666667 24.21333333-6.18666667 3.09333333-14.72 5.01333333-25.49333333 5.54666667v9.38666666h-9.70666667v-9.28c-6.82666667-0.42666667-11.94666667-0.96-15.46666667-1.70666666-5.86666667-1.28-11.09333333-3.52-15.78666666-6.82666667-3.62666667-2.56-6.50666667-5.54666667-8.53333334-9.17333333-2.02666667-3.52-3.09333333-7.46666667-3.09333333-11.73333334 0-6.50666667 2.66666667-12.16 7.89333333-16.85333333 5.22666667-4.58666667 14.18666667-8.21333333 26.98666667-10.88l8.10666667-1.70666667V408.53333333c-7.89333333 0.96-13.01333333 2.98666667-15.57333334 6.08m24.96 21.44c5.54666667-1.38666667 9.49333333-2.88 11.73333334-4.16 3.94666667-2.34666667 5.86666667-5.44 5.86666666-9.49333333 0-5.22666667-2.02666667-8.96-6.18666666-11.09333333-2.34666667-1.17333333-6.18666667-2.02666667-11.41333334-2.56v27.30666666m-20.48 24.53333334c-4.16 2.24-6.29333333 5.33333333-6.29333333 9.28 0 3.62666667 1.38666667 6.4 4.16 8.42666666 2.77333333 2.02666667 7.14666667 3.09333333 12.90666667 3.2v-24.42666666c-4.8 1.17333333-8.42666667 2.34666667-10.77333334 3.52M739.84 258.13333333c-1.70666667 2.02666667-2.98666667 5.86666667-3.94666667 11.73333334h-26.98666666c-0.21333333-12.90666667 5.44-21.97333333 16.85333333-27.30666667 6.50666667-2.98666667 16.32-5.01333333 29.44-5.97333333v-13.86666667h9.70666667v13.97333333c10.34666667 0.53333333 19.30666667 2.45333333 26.77333333 5.76 12.37333333 5.33333333 18.56 13.76 18.56 25.49333334 0 8.85333333-4.48 15.78666667-13.44 20.58666666-5.44 2.98666667-16.10666667 6.29333333-31.89333333 10.13333334v26.56c6.61333333-0.32 11.09333333-2.13333333 13.65333333-5.44 1.49333333-1.92 2.45333333-4.90666667 2.98666667-9.06666667h26.34666666c-0.42666667 11.2-6.18666667 19.2-17.38666666 24.21333333-6.18666667 3.09333333-14.72 5.01333333-25.49333334 5.54666667V349.86666667h-9.70666666v-9.28c-6.82666667-0.42666667-11.94666667-0.96-15.46666667-1.70666667-5.76-1.28-11.09333333-3.52-15.78666667-6.82666667-3.62666667-2.56-6.50666667-5.65333333-8.53333333-9.17333333-2.02666667-3.52-3.09333333-7.46666667-3.09333333-11.84 0-6.50666667 2.66666667-12.16 7.89333333-16.74666667 5.22666667-4.69333333 14.18666667-8.32 26.98666667-10.88l8.10666666-1.70666666v-29.76c-7.89333333 1.06666667-13.01333333 3.09333333-15.57333333 6.18666666m24.96 21.44c5.54666667-1.49333333 9.49333333-2.88 11.73333333-4.16 3.94666667-2.34666667 5.86666667-5.54666667 5.86666667-9.49333333 0-5.22666667-2.02666667-8.96-6.18666667-11.09333333-2.34666667-1.17333333-6.18666667-2.02666667-11.41333333-2.45333334v27.2m-20.48 24.53333334c-4.16 2.24-6.29333333 5.33333333-6.29333333 9.28 0 3.62666667 1.38666667 6.4 4.16 8.42666666 2.77333333 2.02666667 7.14666667 3.2 12.90666666 3.2v-24.42666666c-4.90666667 1.17333333-8.42666667 2.34666667-10.77333333 3.52M487.46666667 624.64c-1.70666667 2.02666667-2.98666667 5.97333333-3.94666667 11.73333333H456.53333333c-0.21333333-12.90666667 5.44-21.97333333 16.85333334-27.30666666 6.50666667-2.98666667 16.32-5.01333333 29.44-5.97333334v-13.86666666h9.70666666v13.97333333c10.34666667 0.53333333 19.30666667 2.45333333 26.77333334 5.76 12.37333333 5.33333333 18.56 13.76 18.56 25.49333333 0 8.85333333-4.48 15.78666667-13.44 20.58666667-5.44 2.88-16.10666667 6.29333333-31.89333334 10.13333333v26.56c6.61333333-0.32 11.2-2.13333333 13.65333334-5.44 1.49333333-1.92 2.45333333-4.90666667 2.98666666-9.06666666h26.34666667c-0.42666667 11.2-6.18666667 19.2-17.38666667 24.21333333-6.18666667 3.09333333-14.72 5.01333333-25.49333333 5.54666667v9.38666666h-9.70666667v-9.28c-6.82666667-0.32-11.94666667-0.96-15.46666666-1.70666666-5.76-1.28-11.09333333-3.52-15.78666667-6.82666667-3.62666667-2.56-6.50666667-5.65333333-8.53333333-9.17333333-2.02666667-3.52-3.09333333-7.46666667-3.09333334-11.73333334 0-6.50666667 2.66666667-12.16 7.89333334-16.74666666 5.22666667-4.69333333 14.18666667-8.32 26.98666666-10.88l8.10666667-1.70666667V618.66666667c-7.89333333 0.85333333-13.01333333 2.88-15.57333333 5.97333333m24.96 21.44c5.54666667-1.49333333 9.49333333-2.88 11.73333333-4.16 3.94666667-2.34666667 5.86666667-5.44 5.86666667-9.49333333 0-5.22666667-2.02666667-8.96-6.18666667-11.09333334-2.34666667-1.17333333-6.18666667-2.02666667-11.41333333-2.56v27.30666667m-20.48 24.64c-4.16 2.24-6.29333333 5.33333333-6.29333334 9.28 0 3.62666667 1.38666667 6.4 4.16 8.42666667 2.77333333 2.02666667 7.14666667 3.09333333 12.90666667 3.2v-24.42666667c-4.8 1.06666667-8.42666667 2.24-10.77333333 3.52m0 0z"  horiz-adv-x="1024" />

    
    <glyph glyph-name="account" unicode="&#58891;" d="M962.4-116.8s0-0.8 0 0h25.6-25.6zM704 557.6C704 700.8 588.8 817.6 445.6 817.6S187.2 700.8 187.2 557.6s116-260 258.4-260S704 414.4 704 557.6z m-472 0c0 118.4 96 214.4 213.6 214.4s213.6-96 213.6-214.4-96-214.4-213.6-214.4S232 439.2 232 557.6zM456.8 274.4c196.8 0 361.6-136 394.4-324h45.6C863.2 164 677.6 319.2 456 319.2c-221.6 0-406.4-155.2-440.8-368.8h45.6C96 139.2 260 274.4 456.8 274.4zM770.4 317.6l-24 8.8 20.8 14.4c65.6 46.4 104.8 122.4 103.2 202.4-1.6 128-102.4 232.8-228 241.6v-47.2c100-8.8 180-92.8 180.8-194.4 0.8-52.8-19.2-102.4-56-140.8-36.8-37.6-86.4-59.2-139.2-60-24.8 0-50.4 0-75.2-1.6-15.2-1.6-41.6 0-54.4-9.6-1.6-0.8-3.2 0-4.8 0l-9.6-12c-0.8-1.6-2.4-3.2-4-4.8 0.8-1.6-0.8-16 0-17.6 12-4 71.2 0 156.8-2.4 179.2-1.6 326.4-160.8 340.8-338.4l47.2-3.2c-9.6 156-108 310.4-254.4 364.8z"  horiz-adv-x="1024" />

    
    <glyph glyph-name="red-packet" unicode="&#58983;" d="M928.67 689.72v83.17A111.22 111.22 0 0 1 817.56 884H206.44A111.22 111.22 0 0 1 95.33 772.89v-777.78A111.22 111.22 0 0 1 206.44-116h611.12a111.22 111.22 0 0 1 111.11 111.11V689.69a0.23 0.23 0 0 0 0 0.03zM206.44 828.44h611.12a55.63 55.63 0 0 0 55.56-55.56v-65L588.61 585.9300000000001a195.6 195.6 0 0 0-153.21 0L150.89 707.86v65a55.63 55.63 0 0 0 55.55 55.58z m611.12-888.88H206.44a55.63 55.63 0 0 0-55.56 55.56V647.44l262.65-112.56a250.93 250.93 0 0 1 196.94 0l262.64 112.56v-652.33a55.63 55.63 0 0 0-55.55-55.55zM616.55 420.11L512 341.71000000000004l-104.55 78.4a27.77 27.77 0 0 1-33.31-44.43l110.08-82.56v-6.85H415a27.78 27.78 0 0 1 0-55.56h69.2v-41.4H415a27.78 27.78 0 1 1 0-55.56h69.2v-69.2a27.78 27.78 0 1 1 55.56 0v69.2H609a27.78 27.78 0 1 1 0 55.56h-69.2v41.4H609a27.78 27.78 0 0 1 0 55.56h-69.2v6.85l110.08 82.56a27.77 27.77 0 0 1-33.31 44.43z"  horiz-adv-x="1024" />

    
    <glyph glyph-name="shouye" unicode="&#58985;" d="M1000.4 442.6l-430 430C555.8 887.2 536.2 895.4 515.4 895.4c-20.8 0-40.2-8-55-22.8l-430-430c-30.2-30.4-30.2-79.6 0-110l10.8-10.6L146 289.4v-309c0-59.8 48.6-108.4 108.4-108.4H460V75.4c0 7.8 6.4 14.2 14.2 14.2h91c7.8 0 14.2-6.4 14.2-14.2V-128h191.2c59.8 0 108.4 48.6 108.4 108.4V289l110.4 32.8 10.8 10.8c14.8 14.6 22.8 34.2 22.8 55 0.2 20.8-7.8 40.2-22.6 55zM770.8-64.6h-127.8v139.8c0 42.8-34.8 77.8-77.8 77.8h-91c-42.8 0-77.8-34.8-77.8-77.8v-139.8h-142.2c-24.8 0-45 20.2-45 44.8V336l-134.2 41.8c-5.2 5.6-5 14.4 0.4 19.8l430 430c2.6 2.6 6.2 4.2 10 4.2s7.4-1.4 10-4.2l430-430c2.6-2.6 4.2-6.2 4.2-10 0-3.6-1.2-7-3.8-9.6l-140.4-41.6v-356c0.2-24.8-20-45-44.6-45z"  horiz-adv-x="1024" />

    
    <glyph glyph-name="money_icon" unicode="&#59081;" d="M512 896C229.69344 896 0 666.30656 0 384s229.69344-512 512-512 512 229.69344 512 512S794.30656 896 512 896z m0-967.10656C261.05856-71.10656 56.89344 133.05856 56.89344 384S261.05856 839.10656 512 839.10656 967.10656 634.94144 967.10656 384 762.94144-71.10656 512-71.10656zM682.67008 355.55328a28.44672 28.44672 0 0 1 0 56.89344H562.23744l144.81408 241.3568a28.44672 28.44672 0 1 1-48.77312 29.27616L512 439.296 365.7216 683.07968a28.44672 28.44672 0 1 1-48.77312-29.27616l144.81408-241.3568H341.32992a28.44672 28.44672 0 0 1 0-56.89344h142.22336v-85.32992H341.32992a28.44672 28.44672 0 0 1 0-56.89344h142.22336v-113.77664a28.44672 28.44672 0 1 1 56.89344 0V213.32992h142.22336a28.44672 28.44672 0 0 1 0 56.89344H540.44672v85.32992z"  horiz-adv-x="1024" />

    
    <glyph glyph-name="shouji1" unicode="&#59146;" d="M746.409639-128H277.590361a111.036145 111.036145 0 0 0-111.036144 111.036145V797.301205A98.698795 98.698795 0 0 0 265.253012 896h481.156627a111.036145 111.036145 0 0 0 111.036144-111.036145v-801.92771a111.036145 111.036145 0 0 0-111.036144-111.036145z m61.686747 888.289157a86.361446 86.361446 0 0 1-86.361446 86.361445H302.26506a86.361446 86.361446 0 0 1-86.361446-86.361445v-592.254458c0.410834 0.01974 0.816733 0.061687 1.233735 0.061687h590.959037V760.289157z m0-641.542169H217.137349c-0.417002 0-0.822901 0.041947-1.233735 0.061687V7.710843a86.361446 86.361446 0 0 1 86.361446-86.361445h419.46988a86.361446 86.361446 0 0 1 86.361446 86.361445v111.036145zM512-29.301205a49.349398 49.349398 0 1 0 49.349398 49.349398 49.349398 49.349398 0 0 0-49.349398-49.349398z"  horiz-adv-x="1024" />

    
    <glyph glyph-name="tubiao-" unicode="&#59039;" d="M972.14410924 409.85079231v25.11219896a49.23960498 49.23960498 0 0 1-1.96958373 10.58651521 459.40551588 459.40551588 0 0 1-915.85665508 2.95437667 49.23960498 49.23960498 0 0 1-2.46197967-14.27948632v-116.69786372a49.23960498 49.23960498 0 0 1 49.23960498-49.23960496h43.33085272a49.23960498 49.23960498 0 0 1 49.23960498 49.23960496v117.43645816a49.23960498 49.23960498 0 0 1-49.23960498 49.23960498H108.7276343a410.1659109 410.1659109 0 0 0 807.03712734 0h-36.68350603a49.23960498 49.23960498 0 0 1-49.23960498-49.23960498v-117.43645816a49.23960498 49.23960498 0 0 1 49.23960498-49.23960496h18.71105077a409.9197124 409.9197124 0 0 0-310.94810652-262.20089747 24.61980302 24.61980302 0 0 1-4.18536704-1.7233863 76.56758616 76.56758616 0 1 1 3.93916853-46.28522831 24.61980302 24.61980302 0 0 1 4.67776297 0h4.43156445a459.15931736 459.15931736 0 0 1 357.23333484 321.04222472 49.23960498 49.23960498 0 0 1 18.71104969 38.40689232v83.70732879c0 2.95437667 0.49239593 5.66255483 0.49239594 8.61693041z m-827.47156336 24.61980304v-116.94406224H101.09549574v90.60087291 1.72338629c0 8.61693041 0 16.74146597 1.23099038 24.61980304h42.09986234z m367.57365262-487.47209042a27.08178268 27.08178268 0 1 0 27.08178269 27.08178267 27.08178268 27.08178268 0 0 0-27.08178269-26.58938674z m367.08125562 369.29703783v118.66744851h42.34605976v-34.46772381a410.90450426 410.90450426 0 0 0-10.34031669-83.21493285h-32.25194158zM806.94523499 413.05136748a291.74465981 291.74465981 0 1 1-291.7446609-291.74466089 291.99085832 291.99085832 0 0 1 291.7446609 291.74466089z m-534.00351723 0a242.50505484 242.50505484 0 1 0 242.50505483-242.50505591 242.75125334 242.75125334 0 0 0-242.50505483 242.50505591zM647.40891449 304.47803826999996a24.61980302 24.61980302 0 0 1-38.65309085 30.52855419 125.80719114 125.80719114 0 0 0-196.95841989-1.23098929 24.61980302 24.61980302 0 0 1-38.16069382-31.02095121 176.03158797 176.03158797 0 0 1 136.14750782-64.75008058h8.37073302a175.29299461 175.29299461 0 0 1 129.25396372 66.47346689z"  horiz-adv-x="1024" />

    
    <glyph glyph-name="upload-demo" unicode="&#59101;" d="M411.7-36H163.9C94.5-36 40 18.5 40 87.9V732.1C40 801.5 94.5 856 163.9 856H709c69.4 0 123.9-54.5 123.9-123.9v-148.7c0-14.9-9.9-24.8-24.8-24.8s-24.8 9.9-24.8 24.8V732.1c0 39.6-34.7 74.3-74.3 74.3H163.9c-39.6 0-74.3-34.7-74.3-74.3v-644.2c0-39.6 34.7-74.3 74.3-74.3h247.8c14.9 0 24.8-9.9 24.8-24.8s-10-24.8-24.8-24.8zM713.9 360.5c94.2 0 173.4-79.3 173.4-173.4S808 13.7 713.9 13.7c-94.2 0-173.4 79.3-173.4 173.4s79.3 173.4 173.4 173.4z m0 49.5c-123.9 0-223-99.1-223-223s99.1-223 223-223 223 99.1 223 223-99.1 223-223 223M639.6 221.7c-5 0-14.9 5-19.8 9.9-9.9 9.9-9.9 24.8 0 34.7 29.7 29.7 59.5 39.6 94.2 39.6 29.7 0 64.4-9.9 84.2-29.7 9.9-9.9 9.9-24.8 0-34.7-9.9-9.9-24.8-9.9-34.7 0-14.9 14.9-29.7 19.8-49.6 19.8-19.8 0-39.6-9.9-54.5-29.7-4.9-4.9-14.8-9.9-19.8-9.9zM941.9-80.6L837.8 23.5c-9.9 9.9-9.9 24.8 0 34.7 9.9 9.9 24.8 9.9 34.7 0l104.1-104.1c9.9-9.9 9.9-24.8 0-34.7-9.9-9.9-24.8-9.9-34.7 0zM609.9 608.2H263c-14.9 0-24.8 9.9-24.8 24.8s9.9 24.8 24.8 24.8h346.9c14.9 0 24.8-9.9 24.8-24.8-0.1-14.9-10-24.8-24.8-24.8zM609.9 459.6H263c-14.9 0-24.8 9.9-24.8 24.8s9.9 24.8 24.8 24.8h346.9c14.9 0 24.8-9.9 24.8-24.8-0.1-14.9-10-24.8-24.8-24.8zM575.2 182.1c0-13.7 11.1-24.8 24.8-24.8 13.7 0 24.8 11.1 24.8 24.8 0 13.7-11.1 24.8-24.8 24.8-13.7-0.1-24.8-11.1-24.8-24.8"  horiz-adv-x="1024" />

    
    <glyph glyph-name="zhuye" unicode="&#59133;" d="M568 160v-168H456V160h112m0 56H456c-30.9 0-56-25.1-56-56v-224h224V160c0 30.9-25.1 56-56 56zM512 776l1.7-1.8 352-361.9H792V-8H232V412.3h-73.7L512 776c-0.1 0 0 0 0 0m0 56c-15.4 0-30.7-6.3-41.9-18.8l-399-410.3c-7.1-8-9.3-19.7-4.6-30.1s14.8-16.5 25.5-16.5h84V-8c0-30.9 25.1-56 56-56h560c30.9 0 56 25.1 56 56V356.3h84c10.7 0 20.9 6.2 25.5 16.5 4.7 10.4 2.5 22.1-4.6 30.1l-399 410.3C542.7 825.7 527.4 832 512 832z"  horiz-adv-x="1024" />

    
    <glyph glyph-name="PC" unicode="&#59140;" d="M904 776H120c-30.9 0-56-25.1-56-56v-560c0-30.9 25.1-56 56-56h280v-56h-84c-15.5 0-28-12.5-28-28s12.5-28 28-28h392c15.5 0 28 12.5 28 28s-12.5 28-28 28h-84v56h280c30.9 0 56 25.1 56 56V720c0 30.9-25.1 56-56 56zM568 48H456v56h112v-56z m336 112H120v56h784v-56zM120 272V720h784v-448H120z"  horiz-adv-x="1024" />

    
    <glyph glyph-name="custom" unicode="&#58984;" d="M834.216912 522.8011314h-49.57183302c0 153.67268078-121.45099012 277.60226175-272.64507898 277.60226175s-272.64507898-123.92958097-272.64507898-277.60226175H189.783088C189.783088 703.73832009 333.54140325 849.9752261900001 512 849.9752261900001s322.216912-146.2369061 322.216912-327.17409479zM214.56900503 512.8867647899999v-297.43099494H189.783088c-54.52901579 0-99.143665 44.61464919-99.143665 99.14366498v99.14366499c0 54.52901579 44.61464919 99.143665 99.143665 99.14366497h24.78591703m0 49.57183196H189.783088c-81.7935237 0-148.71549801-66.92197432-148.71549696-148.71549693v-99.14366499c0-81.7935237 66.92197432-148.71549801 148.71549696-148.71549802h24.78591703c27.2645079 0 49.57183303 22.30732513 49.57183197 49.57183304v297.43099494c0 27.2645079-22.30732513 49.57183303-49.57183197 49.57183196zM834.216912 512.8867647899999c54.52901579 0 99.143665-44.61464919 99.143665-99.14366497v-99.14366499c0-54.52901579-44.61464919-99.143665-99.143665-99.14366498h-24.78591703v297.43099494h24.78591703m0 49.57183196h-24.78591703c-27.2645079 0-49.57183303-22.30732513-49.57183197-49.57183196v-297.43099494c0-27.2645079 22.30732513-49.57183303 49.57183197-49.57183304h24.78591703c81.7935237 0 148.71549801 66.92197432 148.71549696 148.71549802v99.14366499c0 81.7935237-66.92197432 148.71549801-148.71549696 148.71549693zM541.74309982-42.317759759999944v49.57183196c118.97239819 0 223.07324596 84.27211562 247.85916193 203.24451381l49.57183303-9.91436661c-29.74309982-141.27972226-153.67268078-242.90197916-297.43099496-242.90197916z"  horiz-adv-x="1024" />

    
    <glyph glyph-name="home" unicode="&#59099;" d="M488.448 834.56a32.768 32.768 0 0 0 45.568 0c12.8-12.288 12.8-32.768 0-45.568l-453.632-452.608a32.768 32.768 0 0 0-45.568 0c-12.8 12.288-12.8 32.768 0 45.568L488.448 834.56zM489.472 835.072c12.288 12.8 32.768 12.8 45.568 0l453.632-453.632c12.8-12.8 12.8-32.768 0-45.568s-32.768-12.8-45.568 0L489.472 789.504c-12.8 12.8-12.8 33.28 0 45.568z m214.528-104.96c-0.512 17.408 13.312 31.744 30.72 32.256h129.536c17.92 0 32.256-14.336 32.256-31.744 0.512-17.408-13.312-31.744-30.72-32.256H735.744c-17.408-0.512-31.744 13.824-31.744 31.744zM832.512 730.624c0 17.92 14.336 32.256 32.256 32.256 17.408 0.512 31.744-13.312 32.256-30.72v-129.536c0-17.92-14.336-32.256-31.744-32.256-17.408-0.512-31.744 13.312-32.256 30.72v1.536l-0.512 128zM126.976 345.088c0 17.92 14.336 32.256 32.256 32.256s32.256-14.336 32.256-32.256v-385.024c0-17.92-14.336-32.256-32.256-32.256s-32.256 14.336-32.256 32.256v385.024zM126.976-39.424c-0.512 17.408 13.312 31.744 30.72 32.256h258.048c17.408 0 31.744-14.336 31.744-31.744 0.512-17.408-13.312-31.744-30.72-32.256H158.72c-17.408-0.512-31.744 13.824-31.744 31.744z m449.024 0c-0.512 17.408 13.312 31.744 30.72 32.256H864.256c17.92 0 31.744-14.336 31.744-31.744 0.512-17.408-13.312-31.744-30.72-32.256h-258.048c-16.896-0.512-31.232 13.824-31.232 31.744zM383.488 153.6c0.512 17.408 14.848 31.232 32.256 31.232 17.408 0.512 31.744-13.312 32.256-30.72v-193.024c-0.512-17.408-14.336-31.232-31.744-31.232-17.408-0.512-31.744 13.312-32.256 30.72V153.6h-0.512zM383.488 153.088c-0.512 17.408 13.312 31.744 30.72 31.744h193.024c17.408-0.512 31.232-14.336 31.232-31.744 0.512-17.408-13.312-31.744-30.72-32.256H414.72c-17.408 0.512-31.232 14.336-31.232 32.256zM576 153.6c0.512 17.408 14.336 31.232 31.744 31.232 17.408 0.512 31.744-13.312 32.256-30.72v-193.024c-0.512-17.408-14.848-31.232-32.256-31.232-17.408-0.512-31.744 13.312-32.256 30.72v0.512l0.512 192.512z m288.256 223.744c-17.408-0.512-31.744-14.336-32.256-31.744v-385.024c0-17.92 14.336-32.256 32.256-32.256s32.256 14.336 32.256 32.256v385.024c-0.512 17.408-14.336 31.232-32.256 31.744z"  horiz-adv-x="1024" />

    
    <glyph glyph-name="-" unicode="&#58896;" d="M654.3176-4.666666970000051l324 324a55.60000031 55.60000031 0 0 1 0 75.6l-332.4 332.00000062a55.60000031 55.60000031 0 0 1-75.6 0l-520.00000031-520.00000031a55.60000031 55.60000031 0 0 1 0-75.6l136.8-136.8H59.51760031a24.40000031 24.40000031 0 1 1 0-48.40000031l899.19999938-4.8a27.19999969 27.19999969 0 1 1 0 54.40000031z m-405.6 0l-155.20000031 151.2a32.80000031 32.80000031 0 0 0 0 51.6l484.00000031 482.80000031A40.00000031 40.00000031 0 0 0 633.11760031 686.53333303l302.4-302.79999938a47.59999969 47.59999969 0 0 0-12.80000062-68.00000062l-325.59999938-319.99999969H249.11760031z m346.8 635.60000062L547.11759969 221.33333333999997l-390.39999938-36.40000031c-9.6 0-17.20000031-9.19999969-15.6-23.59999969s15.6-18 21.19999969-18l384.79999969 37.99999969a44.4 44.4 0 0 1 42.80000062 33.6q2.4 19.2 46.39999969 417.20000062a21.19999969 21.19999969 0 0 1-19.60000031 21.99999938 20.4 20.4 0 0 1-21.19999969-21.99999938z m0 0"  horiz-adv-x="1025" />

    
    <glyph glyph-name="menu" unicode="&#58888;" d="M879.6 665.5H261.9c-24.5 0-44.4 19.9-44.4 44.4s19.9 44.4 44.4 44.4h617.6c24.5 0 44.4-19.9 44.4-44.4s-19.8-44.4-44.3-44.4zM879.6 340.9H261.9c-24.5 0-44.4 19.9-44.4 44.4s19.9 44.4 44.4 44.4h617.6c24.5 0 44.4-19.9 44.4-44.4s-19.8-44.4-44.3-44.4zM879.6 16.200000000000045H261.9c-24.5 0-44.4 19.9-44.4 44.4s19.9 44.4 44.4 44.4h617.6c24.5 0 44.4-19.9 44.4-44.4s-19.8-44.4-44.3-44.4zM112 665.5c-11.5 0-23.1 4.9-31.3 13.1s-13.1 19.7-13.1 31.3c0 11.8 4.9 23.1 13.1 31.5 16.6 16.4 46.2 16.4 62.8 0 8.2-8.4 12.9-19.7 12.9-31.5 0-11.6-4.7-23.1-12.9-31.3-8.4-8.3-19.7-13.1-31.5-13.1zM112 341c-11.5 0-23.1 4.7-31.3 12.9s-13.1 19.7-13.1 31.3c0 11.7 4.9 23.3 13.1 31.5 16.4 16.4 46.2 16.4 62.8 0 8.2-8.2 12.9-19.8 12.9-31.5 0-11.6-4.7-23.1-12.9-31.3-8.4-8.3-19.7-12.9-31.5-12.9zM112 16.200000000000045c-11.5 0-23.1 4.7-31.3 12.9-8.2 8.4-13.1 20-13.1 31.5 0 11.8 4.9 23.1 13.1 31.3 16.6 16.6 46.2 16.6 62.8 0.2 8.2-8.4 12.9-19.7 12.9-31.5 0-11.6-4.7-23.1-12.9-31.3-8.4-8.4-19.7-13.1-31.5-13.1z"  horiz-adv-x="1024" />

    
    <glyph glyph-name="bank-card" unicode="&#59136;" d="M925.86810027 534.03005333h-17.56168107L811.92140373 781.945728c-5.55573867 15.21247893-17.56168107 28.00258133-32.92378346 35.08622933-15.73452373 7.27040533-33.78220907 8.053472-49.5909984 2.0510464L76.6384992 563.5234112c-16.10803733-5.81676053-29.3066016-18.307616-36.24281067-34.2660288-6.897984-15.9584128-7.15900587-33.259072-0.78306666-48.69544L160.90508053 168.77548266999997v-159.2870688c0-35.60827413 28.52353387-64.5795872 63.5354976-64.5795872H926.01772373c35.04909653 0 63.5354976 28.97131307 63.5354976 64.5795872V469.45046613c-0.11249067 35.60827413-28.71029013 64.5795872-63.68512106 64.5795872zM204.49256107 469.45046613c0 11.18465067 9.13469547 20.65572587 19.94801706 20.65572587H926.01772373c10.81222933 0 19.948016-9.47107627 19.94801707-20.65572587l-0.11249173-460.07454293c0-11.22287573-9.17182827-20.69285867-19.9851488-20.69285973H224.44057813c-10.8133216 0-19.948016 9.469984-19.94801706 20.69285973V469.45046613zM771.2794368 766.47222613l21.47701867-55.1838688-453.3250912-177.258304H224.44057813c-35.01196373 0-63.5354976-29.00953813-63.5354976-64.5795872v-5.25758293l-59.17347306-23.11741973-21.66268267 55.92871253c-1.93855573 4.62304747-1.86429013 9.80636373 0.29815467 14.61616747 2.19957867 5.07082667 6.18918187 8.79940693 11.70778773 10.8504544L745.06688 778.18001387a20.65572587 20.65572587 0 0 0 7.19723093 1.30511253c8.61265067 0 16.03267947-5.07082667 19.01532587-13.01290027z m-47.240704-232.4421728l119.27854507 46.7568832 18.12195093-46.7568832H724.0387328z m-571.3738816-223.79129813l8.12773867 3.16940267v-24.12437654l-8.12773867 20.95497387zM287.6036544 374.6698112h258.4297472c12.0059424 0 21.81339947 9.84349653 21.81339947 21.9237056 0 12.11843413-9.80636373 21.96193067-21.81339947 21.96193067H287.6036544c-12.0059424 0-21.7751744-9.84349653-21.7751744-21.96193067 0-12.08130027 9.76923093-21.9237056 21.7751744-21.9237056zM335.18073813 181.82551466999996h77.62962027c38.255632 0 69.38939093 31.2833824 69.38939093 69.72577173 0 38.47842987-31.13375893 69.76181227-69.38939093 69.76181227h-77.62962027c-38.25453973 0-69.35225813-31.2833824-69.35225813-69.76181227 0-38.44348053 31.09662613-69.72577173 69.35225813-69.72577173zM287.6036544 42.897109330000035H877.84323627c12.0059424 0 21.8123072 9.8445888 21.8123072 21.9237056 0 12.11843413-9.80636373 21.96193067-21.8123072 21.96193067H287.6036544c-12.0059424 0-21.7751744-9.8445888-21.7751744-21.96193067 0-12.0791168 9.76923093-21.9237056 21.7751744-21.9237056z"  horiz-adv-x="1024" />

    


  </font>
</defs>
</svg>
